PathFileType	4	(X/Y/Z)	./resultDataOpenSim/trcMotMarkerGrf/sub10/qtm-01-01.trc
DataRate	CameraRate	NumFrames	NumMarkers	Units	OrigDataRate	OrigDataStartFrame	OrigNumFrames
250.000000	250.000000	14	24	m	250.000000	1	479
Frame#	Time	L.Toe.Tip			R.Toe.Tip			L.Ankle.Lat			R.Ankle.Lat			L.Ankle.Med			R.Ankle.Med			L.Heel			R.Heel			L.Knee.Lat			R.Knee.Lat			L.Knee.Med			R.Knee.Med			L.Thigh.Upper			R.Thigh.Upper			L.ASIS			R.ASIS			V.Sacral			L.Acromium			R.Acromium			C7			L.Elbow			R.Elbow			L.Wrist.Lat			R.Wrist.Lat
		X1	Y1	Z1	X2	Y2	Z2	X3	Y3	Z3	X4	Y4	Z4	X5	Y5	Z5	X6	Y6	Z6	X7	Y7	Z7	X8	Y8	Z8	X9	Y9	Z9	X10	Y10	Z10	X11	Y11	Z11	X12	Y12	Z12	X13	Y13	Z13	X14	Y14	Z14	X15	Y15	Z15	X16	Y16	Z16	X17	Y17	Z17	X18	Y18	Z18	X19	Y19	Z19	X20	Y20	Z20	X21	Y21	Z21	X22	Y22	Z22	X23	Y23	Z23	X24	Y24	Z24

1	0	-1.4680487	0.03742111	-0.089996192	-0.7977783	0.13934102	-0.0027079825	-1.5973221	0.073086364	-0.11952503	-0.92976996	0.079627613	0.020124438	-1.5845345	0.097383624	-0.036126296	-0.92164521	0.12644921	-0.054737993	NaN	NaN	NaN	-0.95414973	0.041025186	-0.036484942	-1.43099	0.42341117	-0.16567033	-1.1091643	0.43915267	0.083807037	-1.4265985	0.40350704	-0.04358904	-1.0962577	0.45144869	-0.046178451	-1.3248273	0.80128007	-0.23552922	-1.2532516	0.82910318	0.14368049	-1.2467791	0.90627067	-0.18482233	-1.1985993	0.92158416	0.057607841	-1.4177339	0.92320996	-0.024904886	-1.2491365	1.372352	-0.21674603	-1.2890025	1.3762243	0.10800788	-1.3515077	1.4152518	-0.068440637	-1.3021414	1.0217923	-0.26423143	-1.4369356	1.0532088	0.13663381	-1.1033919	0.87271144	-0.24028265	-1.327977	0.84811553	0.21354565
2	0.004	-1.4679595	0.037420767	-0.090004648	-0.79169141	0.13949068	-0.0034917813	-1.5968648	0.074112248	-0.11946246	-0.92334257	0.079634771	0.020415437	-1.5836924	0.098254282	-0.036145573	-0.91568827	0.12646826	-0.054417582	NaN	NaN	NaN	-0.94808603	0.041015563	-0.035881615	-1.4279118	0.42306396	-0.16577214	-1.1039733	0.43878783	0.084047353	-1.4232035	0.40309395	-0.043690655	-1.0923061	0.45037093	-0.045977292	-1.3210759	0.80065242	-0.235678	-1.2481251	0.82845501	0.14342803	-1.2423861	0.90547052	-0.18511142	-1.1937642	0.92072219	0.057141576	-1.4132402	0.92230805	-0.024745192	-1.2447532	1.3716923	-0.21679062	-1.2846058	1.3754285	0.10797024	-1.3470946	1.414535	-0.068326828	-1.2966271	1.0209798	-0.26400998	-1.4330169	1.0526345	0.13602906	-1.0972584	0.87307086	-0.23972989	-1.3218365	0.8461339	0.21292602
3	0.008	-1.4678526	0.037418473	-0.090027486	-0.78581571	0.13944011	-0.0041977339	-1.5963979	0.075172817	-0.11942026	-0.91720568	0.079555684	0.020755456	-1.5828395	0.099152844	-0.036170301	-0.90997599	0.12639227	-0.054069011	NaN	NaN	NaN	-0.94231064	0.04094731	-0.035282591	-1.4247799	0.42273278	-0.1658663	-1.0988484	0.43847692	0.084218274	-1.4197846	0.40271397	-0.043790929	-1.0882456	0.44940383	-0.045773814	-1.3172657	0.80004617	-0.23577976	-1.2429659	0.82781276	0.1431852	-1.23784	0.90474173	-0.18533845	-1.1888695	0.91988213	0.056677477	-1.4086672	0.92133139	-0.024633434	-1.2403481	1.371053	-0.21682455	-1.280135	1.3746469	0.10796143	-1.3426796	1.4138342	-0.068253903	-1.291123	1.0202027	-0.26378493	-1.4290514	1.0520727	0.13543085	-1.0911306	0.87344933	-0.23917066	-1.3166471	0.84441643	0.21230274
4	0.012	-1.4677128	0.037413991	-0.090078709	-0.78026001	0.13907476	-0.0047792807	-1.5959048	0.076291008	-0.11941789	-0.91148169	0.079349361	0.021171916	-1.5819463	0.10010635	-0.036205744	-0.90460291	0.12616221	-0.053688969	NaN	NaN	NaN	-0.93697765	0.040777984	-0.034657751	-1.4215664	0.42242999	-0.16595747	-1.0936758	0.43832633	0.084309942	-1.4163216	0.40237106	-0.043895092	-1.083968	0.44863144	-0.045581494	-1.3133841	0.79947174	-0.23582795	-1.2375056	0.82722169	0.1430108	-1.2331358	0.90408033	-0.18550088	-1.1838665	0.91907556	0.056221543	-1.4039611	0.92033582	-0.024494863	-1.2359036	1.3704521	-0.21684172	-1.275551	1.3738838	0.10797905	-1.3382477	1.4131633	-0.068222759	-1.285702	1.0194666	-0.26359056	-1.4250087	1.0515348	0.13484513	-1.0850079	0.87386017	-0.23861399	-1.3134839	0.84315904	0.21190062
5	0.016	-1.467541	0.037409227	-0.090156398	-0.77503668	0.13837691	-0.0052281039	-1.5953698	0.077484117	-0.11946804	-0.90617509	0.079018823	0.021661359	-1.5809782	0.10112821	-0.036270756	-0.89954673	0.12576319	-0.053289369	NaN	NaN	NaN	-0.93210229	0.040487979	-0.033952377	-1.4182727	0.42216423	-0.16605024	-1.0880464	0.43847388	0.084414481	-1.4127996	0.40205606	-0.04400713	-1.0793917	0.44810186	-0.045434147	-1.3094591	0.79893543	-0.23584257	-1.2314362	0.82674406	0.14297367	-1.2284319	0.90343352	-0.18566416	-1.178753	0.91831556	0.055784313	-1.3990952	0.91947435	-0.024150249	-1.2314146	1.3699041	-0.21684607	-1.2708963	1.3731368	0.10800494	-1.3337905	1.4125346	-0.068209381	-1.2804136	1.0187696	-0.26344075	-1.420886	1.0510296	0.13427744	-1.0789019	0.87430669	-0.23807133	-1.3125307	0.84234416	0.21186198
6	0.02	-1.4673551	0.037406596	-0.090241609	-0.77011038	0.13737625	-0.0055626226	-1.5947827	0.078764193	-0.11957548	-0.90125111	0.078578579	0.022208815	-1.5799225	0.10221885	-0.036397064	-0.89475666	0.12520036	-0.052875058	NaN	NaN	NaN	-0.92762738	0.040073949	-0.033131449	-1.4149036	0.42194328	-0.16614231	-1.0814874	0.43897296	0.084664641	-1.4092174	0.40176525	-0.044120297	-1.0744809	0.44782893	-0.045365205	-1.3055018	0.79845123	-0.23584424	-1.2248704	0.826391	0.14305191	-1.2239306	0.90276309	-0.18593514	-1.1735898	0.91762109	0.055371627	-1.3940525	0.91882803	-0.023493757	-1.2268811	1.3694188	-0.21684283	-1.266224	1.3724137	0.10802924	-1.3293062	1.4119551	-0.068192322	-1.2752101	1.0181188	-0.26329207	-1.4166896	1.0505614	0.13372988	-1.0728214	0.87478482	-0.23753937	-1.3126909	0.84173623	0.21201695
7	0.024	-1.4671664	0.03740817	-0.090324146	-0.76544576	0.13611387	-0.0058070385	-1.5941394	0.080131676	-0.11974037	-0.89667347	0.078037221	0.022800411	-1.5787952	0.10338146	-0.036605176	-0.89020777	0.12447983	-0.052447937	NaN	NaN	NaN	-0.92349689	0.039544451	-0.032215524	-1.41146	0.42177129	-0.16622973	-1.0740569	0.43970167	0.085045771	-1.4056082	0.40149503	-0.044224325	-1.0692775	0.44779041	-0.045387101	-1.3014953	0.79803452	-0.23584485	-1.2183613	0.82611321	0.14312873	-1.2197298	0.90207124	-0.18640215	-1.1684514	0.91700756	0.054984765	-1.388871	0.91832067	-0.022654026	-1.2223093	1.3689995	-0.21682787	-1.2615159	1.3717341	0.10805433	-1.3247933	1.4114269	-0.068152295	-1.2700132	1.0175227	-0.26308664	-1.4124244	1.0501304	0.13320015	-1.066761	0.87529337	-0.23700332	-1.3126163	0.84106994	0.21208641
8	0.028	-1.4669662	0.037417398	-0.090415427	-0.76102622	0.13462944	-0.005972824	-1.593443	0.081582948	-0.11996104	-0.89240876	0.077404221	0.023421204	-1.5776093	0.10463263	-0.036896347	-0.88590905	0.12361213	-0.052015305	NaN	NaN	NaN	-0.91968206	0.038918968	-0.031260053	-1.4079414	0.42164747	-0.16631758	-1.066372	0.44046014	0.085357363	-1.4020102	0.40123785	-0.044317667	-1.0638792	0.44793134	-0.045487552	-1.2974178	0.7976854	-0.2358474	-1.2123378	0.82586854	0.14311562	-1.2157386	0.9013905	-0.18705957	-1.163338	0.91647924	0.054631781	-1.3836323	0.91779409	-0.021907569	-1.2177062	1.3686426	-0.2167936	-1.2567293	1.3711091	0.10809348	-1.3202486	1.4109487	-0.068069448	-1.2647806	1.016983	-0.26279499	-1.40809	1.0497339	0.13268108	-1.0607076	0.87583943	-0.23644909	-1.3117407	0.8402407	0.21194253
9	0.032	-1.4667442	0.037439798	-0.090529196	-0.75685206	0.13295586	-0.006053879	-1.5926955	0.083116487	-0.12023741	-0.8883778	0.076710266	0.024063412	-1.57634	0.10599969	-0.037274294	-0.88187564	0.12261852	-0.051582212	NaN	NaN	NaN	-0.91616741	0.038221872	-0.03031126	-1.4043409	0.42157098	-0.16642325	-1.0589292	0.4411306	0.085438243	-1.3984026	0.40099579	-0.044409698	-1.0583287	0.44818816	-0.045631052	-1.2932538	0.79738959	-0.23584793	-1.2068047	0.82565649	0.14301808	-1.2117316	0.90076354	-0.18778291	-1.158175	0.91603016	0.054328462	-1.3783695	0.91714333	-0.021419774	-1.2130733	1.3683456	-0.21673671	-1.2518766	1.3705381	0.1081574	-1.3156694	1.4105205	-0.067936537	-1.2595134	1.0164995	-0.2624305	-1.4036808	1.0493668	0.13216162	-1.0546687	0.87642668	-0.23588424	-1.3101898	0.83932612	0.21163906
10	0.036	-1.4665059	0.037479557	-0.090661955	-0.7529288	0.13112485	-0.006035559	-1.5918877	0.084733162	-0.12057456	-0.88443386	0.076025326	0.024736282	-1.5749506	0.10751399	-0.03775476	-0.87809847	0.121522	-0.051150518	NaN	NaN	NaN	-0.91293341	0.037466686	-0.029396468	-1.4006404	0.42153959	-0.16655691	-1.0518974	0.44166419	0.08530564	-1.3947034	0.40079036	-0.044516156	-1.0525628	0.44851712	-0.04577132	-1.2889922	0.79713102	-0.2358287	-1.2015884	0.8254869	0.14287734	-1.2075013	0.90021983	-0.18841151	-1.1529	0.91565387	0.054087385	-1.3730773	0.91641364	-0.021145244	-1.2084126	1.3681137	-0.21665808	-1.2470086	1.3700195	0.10824059	-1.3110536	1.410144	-0.067761629	-1.254241	1.0160821	-0.26205185	-1.3991951	1.0490285	0.13163705	-1.0486806	0.87704894	-0.23534226	-1.308144	0.83845267	0.21127748
11	0.04	-1.4662656	0.037535565	-0.090797551	-0.74925801	0.12917398	-0.0059105593	-1.5909952	0.086432562	-0.12097617	-0.88046047	0.075424858	0.025448545	-1.5734592	0.10919087	-0.03834059	-0.87455263	0.12033762	-0.050727318	NaN	NaN	NaN	-0.90995285	0.036644867	-0.028535185	-1.3968195	0.42154984	-0.16671066	-1.0454609	0.44199436	0.085053558	-1.3908543	0.40064635	-0.044652024	-1.0465589	0.44889311	-0.045879949	-1.2846289	0.79690114	-0.23576216	-1.1965465	0.82536968	0.14271874	-1.2029785	0.89975903	-0.18887322	-1.1475247	0.9153577	0.053908434	-1.3677885	0.91576267	-0.020954951	-1.2037283	1.3679541	-0.21656128	-1.2421566	1.3695559	0.10833644	-1.3063999	1.40982	-0.067558068	-1.2490005	1.0157532	-0.26172564	-1.3946527	1.0487443	0.13113032	-1.0427731	0.8777017	-0.23484623	-1.3057075	0.83768197	0.21091446
12	0.044	-1.4660267	0.037602341	-0.090924992	-0.74583724	0.12714116	-0.0056885264	-1.58997	0.088197526	-0.12142545	-0.87653485	0.07488796	0.026170211	-1.5719419	0.11100928	-0.039009188	-0.87122498	0.11907422	-0.050329482	NaN	NaN	NaN	-0.90719837	0.03573957	-0.027742385	-1.3928709	0.42160209	-0.16687462	-1.0398048	0.44207247	0.084742156	-1.3868671	0.40056873	-0.044825402	-1.0404872	0.44928671	-0.045967518	-1.2801682	0.79670656	-0.23563734	-1.1914863	0.82534971	0.14257442	-1.1982226	0.89936354	-0.18920313	-1.1420984	0.91516355	0.053777119	-1.3625478	0.91530208	-0.020760683	-1.1990198	1.3678703	-0.21645037	-1.2373099	1.3691538	0.10844872	-1.3017163	1.4095452	-0.067348466	-1.2438108	1.0155258	-0.2614587	-1.3901148	1.048595	0.13071479	-1.0369424	0.87838637	-0.23438516	-1.3030471	0.83699896	0.2105683
13	0.048	-1.4657773	0.037674785	-0.091047572	-0.7426614	0.12505585	-0.0053916289	-1.5887321	0.089983416	-0.12187654	-0.87292756	0.074267506	0.026828382	-1.5704735	0.11291289	-0.039725466	-0.86811664	0.11774097	-0.049979558	NaN	NaN	NaN	-0.90465386	0.034750856	-0.02702588	-1.3888078	0.42169619	-0.16704838	-1.0348154	0.44195093	0.084408341	-1.3827759	0.40054194	-0.045035847	-1.0346037	0.4496595	-0.046065309	-1.2756113	0.79656509	-0.23546962	-1.1861288	0.8255013	0.14250472	-1.1933249	0.89902459	-0.18946187	-1.1366438	0.91509199	0.0536743	-1.3573627	0.91500971	-0.020533962	-1.1942773	1.3678631	-0.21632551	-1.2324415	1.3688164	0.10857789	-1.2970172	1.4093142	-0.067158699	-1.2386629	1.0153928	-0.26119598	-1.3856843	1.0487261	0.13051628	-1.0311715	0.87910378	-0.23394044	-1.3003227	0.83635919	0.2102487
14	0.052	-1.4655013	0.03775174	-0.091174697	-0.73972083	0.12293919	-0.0050493824	-1.5872151	0.091749407	-0.12228263	-0.86984953	0.073427151	0.027362099	-1.5690867	0.11482164	-0.040435344	-0.86522305	0.11635249	-0.049688946	NaN	NaN	NaN	-0.90231568	0.033699501	-0.026385367	-1.3846551	0.42182329	-0.16722823	-1.0301076	0.44175541	0.084105719	-1.3785907	0.40054498	-0.045277511	-1.0290129	0.44998343	-0.046183086	-1.2709462	0.79648502	-0.23527961	-1.180354	0.82585155	0.14254662	-1.1883418	0.89874346	-0.18968115	-1.1311581	0.91515169	0.0535902	-1.3522215	0.91480014	-0.020279441	-1.1894891	1.3679301	-0.21617831	-1.2275537	1.3685377	0.10871979	-1.2923053	1.4091251	-0.066982967	-1.2335385	1.0153422	-0.26088894	-1.3814396	1.0492627	0.13064099	-1.0254561	0.87985728	-0.23351072	-1.2975981	0.8357411	0.20995706
